<?xml version="1.0" standalone="no"?>
<!DOCTYPE svg PUBLIC "-//W3C//DTD SVG 20010904//EN"
 "http://www.w3.org/TR/2001/REC-SVG-20010904/DTD/svg10.dtd">
<svg version="1.0" xmlns="http://www.w3.org/2000/svg"
 width="800.000000pt" height="800.000000pt" viewBox="0 0 800.000000 800.000000"
 preserveAspectRatio="xMidYMid meet">
<metadata>
Created by potrace 1.14, written by Peter Selinger 2001-2017
</metadata>
<g transform="translate(0.000000,800.000000) scale(0.100000,-0.100000)"
fill="#000000" stroke="none">
<path d="M3900 7792 c0 -4 -28 -8 -61 -9 -39 -1 -65 -6 -70 -15 -7 -10 -9 -8
-9 6 0 15 -3 16 -15 6 -8 -7 -20 -8 -27 -4 -16 10 -48 6 -66 -9 -16 -13 -122
-17 -122 -4 0 4 -6 5 -12 0 -7 -4 -20 -6 -30 -5 -9 2 -19 -2 -23 -8 -3 -5 -28
-10 -55 -10 -39 0 -52 -4 -64 -22 -9 -12 -16 -17 -16 -10 0 9 -7 11 -22 6 -13
-4 -35 -7 -50 -6 -20 2 -28 -2 -28 -14 0 -10 -6 -14 -14 -11 -7 3 -18 1 -24
-5 -6 -6 -12 -6 -16 1 -10 16 -20 14 -46 -9 -17 -15 -27 -17 -41 -9 -15 7 -21
6 -25 -6 -3 -8 -10 -13 -14 -10 -4 3 -13 -2 -20 -10 -6 -7 -17 -12 -25 -9 -7
3 -16 1 -20 -5 -3 -6 -19 -11 -34 -11 -16 0 -34 -7 -41 -15 -7 -8 -16 -12 -21
-9 -5 3 -19 -1 -31 -8 -13 -7 -32 -13 -43 -14 -10 -1 -21 -6 -22 -11 -2 -6
-11 -19 -19 -29 -14 -17 -15 -17 -10 -1 7 21 -7 22 -28 2 -8 -8 -21 -15 -29
-15 -8 0 -17 -6 -20 -14 -4 -9 -14 -12 -26 -9 -12 3 -27 -2 -36 -11 -9 -9 -25
-16 -36 -16 -11 0 -18 -4 -14 -9 6 -11 -50 -41 -77 -41 -10 0 -18 -6 -18 -14
0 -9 -7 -12 -20 -9 -14 4 -21 -1 -25 -20 -4 -15 -12 -24 -20 -21 -14 6 -27
-18 -31 -56 -2 -14 -8 -26 -14 -28 -8 -3 -7 -8 1 -18 7 -8 7 -14 1 -14 -16 0
-20 -59 -5 -71 7 -6 13 -21 13 -33 1 -48 75 -104 143 -107 26 -2 49 0 53 3 3
3 18 3 33 -2 28 -8 51 -1 54 16 1 5 7 8 14 6 7 -2 13 4 13 13 0 12 6 15 20 10
15 -5 26 0 40 17 11 13 19 19 20 14 0 -4 12 -1 26 9 14 9 32 14 40 11 8 -3 14
1 14 9 0 8 9 15 20 15 19 0 58 17 70 31 9 10 45 22 62 20 9 -1 19 7 23 18 5
16 11 18 28 12 16 -6 29 -4 44 9 13 10 32 16 46 13 18 -4 26 0 29 14 5 20 38
28 38 10 0 -6 9 -2 20 8 10 9 34 18 52 19 18 1 42 7 54 13 11 7 35 10 52 8 20
-3 38 3 52 15 13 11 27 17 32 14 18 -11 82 -6 92 8 7 9 37 15 86 17 41 1 81 8
88 14 9 7 65 10 160 9 109 -1 150 2 162 12 19 17 250 16 271 0 9 -7 66 -12
148 -13 104 -1 138 -5 151 -16 9 -8 19 -13 22 -10 3 3 31 6 61 6 40 1 61 -4
73 -15 11 -12 27 -15 48 -12 22 4 45 -1 70 -15 30 -16 41 -17 58 -8 17 9 23 9
26 0 2 -6 10 -11 17 -11 7 0 15 -6 18 -12 3 -10 7 -10 20 1 10 7 17 9 17 4 0
-5 12 -10 27 -11 15 -1 32 -7 37 -12 6 -6 23 -10 38 -10 15 0 37 -9 48 -20 11
-11 20 -15 20 -9 0 6 15 2 33 -9 17 -11 41 -18 52 -16 11 2 31 -4 44 -13 15
-10 26 -11 30 -5 7 11 37 -6 40 -23 1 -5 13 -11 28 -12 14 -1 29 -6 32 -11 3
-5 13 -8 22 -7 9 2 22 -5 29 -15 8 -11 20 -15 33 -12 12 3 25 -2 33 -13 8 -10
17 -16 20 -12 4 4 14 -2 22 -14 9 -13 21 -19 33 -16 10 3 19 1 21 -5 2 -5 13
-10 26 -11 12 0 22 -6 22 -12 1 -15 66 -45 98 -45 21 0 24 -2 12 -10 -13 -8
-13 -10 1 -10 9 0 20 -7 23 -16 4 -9 13 -14 21 -10 9 3 18 -1 21 -9 4 -8 11
-15 17 -15 5 0 25 -11 43 -25 18 -14 37 -25 42 -25 6 0 12 -5 14 -11 2 -5 10
-11 18 -12 8 -1 29 -15 45 -29 17 -15 51 -38 75 -51 25 -14 44 -30 42 -36 -2
-10 11 -15 31 -12 4 0 7 -6 7 -14 0 -8 7 -15 16 -15 9 0 32 -18 51 -40 19 -22
40 -37 46 -33 9 6 137 -122 137 -138 0 -4 11 -10 25 -13 14 -4 31 -18 37 -31
6 -14 19 -27 30 -30 10 -4 18 -13 18 -21 0 -8 7 -14 15 -14 8 0 20 -10 26 -22
11 -21 65 -78 74 -78 8 0 55 -51 55 -60 0 -6 7 -10 16 -10 10 0 14 -6 11 -14
-6 -15 56 -89 67 -79 3 3 6 -3 6 -15 0 -13 6 -22 15 -22 13 0 17 -7 14 -26 -1
-3 12 -19 27 -35 15 -16 24 -29 19 -29 -4 0 0 -9 10 -20 10 -11 22 -17 28 -13
5 3 7 1 4 -4 -4 -6 5 -22 19 -36 14 -15 23 -31 19 -38 -4 -6 -3 -14 1 -18 22
-14 73 -89 79 -114 4 -14 15 -29 24 -32 9 -3 17 -15 18 -27 1 -11 6 -24 11
-27 5 -3 12 -16 16 -28 4 -13 12 -23 18 -23 5 0 8 -6 5 -14 -3 -8 1 -22 8 -33
8 -10 15 -26 15 -35 0 -10 7 -18 15 -18 11 0 14 -7 11 -24 -3 -18 1 -25 17
-30 12 -3 18 -8 14 -12 -3 -4 0 -16 8 -28 8 -11 15 -28 15 -37 0 -9 6 -19 14
-22 8 -3 12 -15 9 -31 -4 -18 0 -28 11 -32 9 -3 16 -14 16 -23 0 -9 4 -21 10
-27 5 -5 11 -25 13 -44 2 -20 8 -34 15 -33 8 2 11 -10 9 -38 -2 -25 1 -43 10
-47 7 -4 14 -20 15 -35 1 -14 8 -29 15 -31 7 -3 13 -21 13 -40 0 -19 5 -36 10
-38 6 -2 12 -23 15 -47 2 -24 8 -53 11 -65 4 -11 8 -36 9 -55 1 -19 8 -39 16
-45 8 -6 14 -28 14 -51 -1 -22 4 -49 9 -60 5 -11 11 -50 12 -87 2 -67 9 -92
22 -84 4 2 6 -35 5 -82 -1 -47 2 -91 8 -98 5 -7 6 -15 1 -17 -14 -9 -14 -88 0
-104 18 -22 19 -253 1 -271 -16 -17 -18 -132 -2 -132 8 0 8 -4 0 -14 -7 -8
-11 -41 -10 -75 1 -34 -3 -66 -10 -74 -6 -8 -12 -43 -13 -78 -1 -35 -6 -70
-12 -78 -6 -8 -11 -38 -12 -69 -1 -36 -6 -57 -16 -63 -9 -5 -14 -22 -13 -51 1
-24 -2 -48 -7 -54 -4 -6 -11 -31 -14 -55 -3 -24 -10 -48 -15 -53 -5 -6 -9 -20
-9 -32 0 -12 -6 -27 -14 -33 -8 -7 -14 -27 -13 -44 1 -22 -2 -32 -13 -32 -11
0 -14 -10 -12 -38 3 -26 0 -37 -10 -37 -8 0 -15 -13 -16 -31 -1 -17 -7 -40
-13 -50 -7 -14 -6 -19 2 -19 6 0 -1 -10 -16 -21 -20 -17 -26 -29 -23 -50 3
-20 0 -29 -13 -32 -12 -3 -16 -11 -12 -26 3 -14 0 -23 -11 -27 -9 -3 -16 -15
-16 -25 0 -10 -4 -19 -10 -19 -5 0 -10 -11 -10 -25 0 -14 -4 -25 -10 -25 -9 0
-24 -30 -50 -98 -7 -18 -20 -38 -30 -45 -9 -7 -16 -22 -15 -34 1 -14 -8 -30
-22 -40 -13 -10 -23 -26 -23 -35 0 -10 -9 -26 -20 -35 -11 -10 -20 -23 -20
-30 0 -7 -5 -13 -11 -13 -5 0 -7 -4 -4 -10 3 -5 -1 -10 -9 -10 -10 0 -15 -8
-13 -23 1 -14 -3 -21 -11 -19 -8 1 -11 -2 -8 -7 4 -5 -2 -16 -12 -23 -25 -17
-93 -124 -84 -132 3 -4 -4 -9 -17 -13 -16 -4 -21 -11 -18 -24 3 -12 0 -16 -9
-12 -8 3 -14 0 -14 -6 0 -6 -7 -11 -16 -11 -8 0 -12 -5 -9 -10 3 -6 -1 -13 -9
-16 -9 -3 -16 -15 -16 -25 0 -10 -21 -38 -47 -61 -25 -24 -62 -60 -82 -82 -51
-54 -62 -65 -117 -117 -27 -25 -51 -49 -54 -55 -3 -5 -8 -8 -12 -7 -4 2 -13
-7 -19 -20 -19 -35 -100 -107 -121 -107 -10 0 -18 -4 -18 -9 0 -11 -57 -75
-68 -77 -30 -6 -52 -19 -52 -30 0 -8 -7 -14 -15 -14 -8 0 -15 -7 -15 -16 0 -9
-7 -14 -17 -13 -24 4 -63 -18 -63 -36 0 -8 -6 -12 -14 -9 -7 3 -16 -2 -20 -11
-3 -10 -12 -15 -21 -11 -9 3 -19 -3 -25 -15 -6 -11 -15 -17 -21 -14 -5 4 -12
-1 -15 -9 -3 -9 -12 -16 -20 -16 -8 0 -14 -4 -14 -10 0 -5 -11 -12 -25 -16
-14 -3 -25 -10 -25 -16 0 -5 -4 -7 -9 -4 -5 3 -23 -7 -40 -23 -16 -15 -33 -26
-35 -23 -3 2 -17 -3 -30 -12 -14 -9 -30 -16 -36 -16 -6 0 -23 -11 -38 -25 -15
-14 -39 -25 -53 -25 -15 0 -32 -7 -39 -15 -7 -8 -19 -15 -26 -15 -8 0 -14 -5
-14 -11 0 -7 -10 -9 -25 -6 -18 3 -30 -2 -40 -15 -7 -11 -18 -17 -24 -13 -6 3
-11 1 -11 -4 0 -6 -7 -11 -15 -11 -8 0 -15 -5 -15 -12 0 -9 -3 -9 -12 0 -9 9
-16 8 -30 -5 -10 -9 -30 -18 -45 -19 -14 -2 -29 -7 -32 -12 -10 -16 -49 -24
-56 -12 -5 8 -12 4 -22 -10 -11 -16 -22 -20 -39 -16 -15 4 -26 1 -31 -9 -5 -9
-19 -17 -31 -20 -12 -2 -27 -7 -32 -10 -6 -3 -10 -1 -10 6 0 8 -7 7 -23 -4
-12 -8 -35 -13 -50 -12 -15 2 -33 -2 -40 -9 -16 -17 -62 -25 -79 -15 -8 5 -21
0 -35 -13 -18 -17 -30 -19 -62 -14 -30 4 -44 2 -56 -11 -12 -12 -36 -16 -88
-17 -40 -1 -78 -5 -84 -9 -7 -4 -28 -10 -47 -11 -19 -2 -39 -7 -45 -10 -6 -4
-11 -3 -11 1 0 5 -158 8 -352 8 -251 0 -355 3 -363 11 -6 7 -42 12 -80 13 -37
0 -74 6 -81 12 -8 6 -35 11 -61 12 -27 0 -52 3 -58 7 -24 17 -73 28 -83 18 -7
-7 -16 -4 -29 9 -13 13 -31 19 -54 17 -19 -1 -41 3 -49 10 -8 7 -28 13 -44 14
-17 1 -33 7 -37 13 -3 6 -20 9 -36 8 -17 -2 -38 3 -48 11 -9 8 -30 13 -46 12
-22 -2 -27 1 -23 13 6 13 -6 18 -41 15 -3 -1 -17 8 -30 19 -14 10 -33 17 -43
14 -10 -2 -24 3 -31 11 -8 9 -21 16 -30 16 -9 0 -31 9 -48 20 -18 11 -43 22
-57 24 -27 5 -68 26 -78 41 -4 5 -13 10 -20 11 -26 1 -78 26 -78 37 0 6 -3 8
-6 5 -3 -4 -14 2 -25 13 -10 10 -27 19 -38 19 -10 0 -24 6 -30 14 -7 8 -21 12
-33 8 -15 -3 -19 -2 -14 7 4 7 -2 19 -16 30 -16 13 -25 16 -30 8 -4 -7 -11 -1
-17 15 -8 21 -15 25 -32 21 -16 -5 -20 -3 -15 6 5 8 0 14 -13 18 -11 3 -18 10
-14 16 4 6 0 8 -9 4 -15 -5 -56 20 -87 56 -8 9 -22 17 -31 17 -9 0 -23 8 -32
18 -30 32 -66 62 -74 62 -5 0 -36 27 -68 60 -33 33 -67 60 -75 60 -9 0 -25 11
-35 25 -10 13 -22 22 -27 19 -5 -3 -9 5 -10 18 0 22 -1 22 -9 3 l-9 -20 -1 20
c-1 25 -36 69 -49 61 -5 -3 -11 4 -14 15 -3 11 -15 23 -27 26 -12 3 -19 11
-16 18 4 13 -33 55 -39 45 -2 -3 -20 14 -40 38 -20 23 -33 42 -29 42 4 0 -2 8
-12 18 -11 9 -27 29 -37 45 -10 15 -24 27 -32 27 -8 0 -15 7 -15 15 0 8 -5 15
-11 15 -5 0 -8 4 -5 9 3 4 -14 30 -39 56 -24 27 -44 51 -43 54 2 23 -4 32 -18
27 -8 -3 -12 -2 -9 4 3 6 -1 13 -9 16 -9 3 -14 10 -11 14 3 5 1 11 -5 15 -6 3
-16 21 -24 38 -7 18 -23 43 -35 57 -11 14 -25 31 -31 38 -6 7 -9 16 -5 21 3 5
2 11 -3 13 -15 6 -52 61 -46 69 3 5 -2 12 -10 15 -9 3 -16 17 -16 30 0 13 -4
24 -10 24 -5 0 -10 7 -10 15 0 16 -28 65 -43 76 -5 3 -9 14 -11 23 -1 10 -8
21 -16 26 -7 5 -10 15 -6 25 4 12 0 23 -14 32 -11 8 -18 19 -15 24 4 5 0 12
-9 15 -8 3 -12 12 -9 20 3 9 -4 24 -16 36 -13 11 -21 29 -19 41 2 24 -22 87
-34 87 -5 0 -8 13 -8 30 0 16 -6 33 -13 37 -16 10 -39 88 -39 129 1 26 -3 31
-17 27 -17 -4 -18 0 -11 37 5 30 4 45 -6 55 -8 7 -14 31 -14 52 0 22 -5 44
-12 51 -13 13 -18 32 -21 72 -1 14 -6 31 -11 38 -4 7 -8 41 -8 75 0 35 -5 65
-11 69 -7 4 -13 43 -14 94 -2 55 -7 90 -15 95 -12 7 -19 199 -8 199 3 0 4 64
3 143 -4 201 -5 217 -15 217 -5 0 -5 8 0 18 5 9 10 32 10 50 0 18 6 40 13 48
6 8 11 48 11 98 1 58 5 86 13 90 8 3 12 26 12 66 0 36 4 65 11 69 7 4 10 24 8
47 -4 46 1 64 18 64 8 0 13 17 15 47 1 26 6 50 12 53 5 4 11 22 12 41 1 19 6
40 11 48 5 7 10 29 11 47 1 18 7 39 12 46 6 7 9 25 8 40 -3 20 2 29 16 33 10
4 19 14 19 24 0 10 7 24 15 31 9 7 14 24 13 39 -2 18 1 25 11 23 9 -2 11 3 7
14 -4 9 1 28 9 41 14 20 14 27 3 41 -7 9 -9 14 -4 10 12 -10 47 27 41 44 -3 8
1 21 10 28 8 7 15 21 15 31 0 11 5 19 10 19 6 0 10 -31 10 -72 1 -110 9 -371
13 -388 1 -8 6 -21 10 -27 5 -7 10 -21 12 -32 2 -10 23 -38 47 -62 l43 -43 80
-1 c76 0 111 8 127 30 4 6 8 7 8 3 0 -4 12 4 26 17 14 13 23 29 19 35 -4 6 -1
18 7 27 10 13 13 93 15 382 1 201 2 372 2 379 1 17 21 15 21 -3 0 -8 6 -15 13
-15 8 0 20 -11 27 -25 7 -14 19 -25 27 -25 7 0 13 -6 13 -13 0 -12 56 -67 69
-67 3 0 15 -14 26 -30 11 -16 26 -30 33 -30 7 0 15 -7 18 -15 4 -8 13 -15 21
-15 8 0 13 -6 10 -13 -5 -13 30 -43 46 -39 4 1 7 -4 7 -11 0 -19 35 -49 45
-40 4 5 5 3 2 -3 -7 -12 16 -38 25 -29 2 2 16 -15 31 -38 29 -46 61 -77 78
-77 6 0 17 -7 26 -15 8 -8 18 -13 23 -10 5 3 11 -4 15 -15 4 -14 15 -20 36
-20 18 0 28 4 24 10 -3 6 -2 10 4 10 5 0 13 -4 16 -10 10 -15 52 -12 59 5 3 8
12 12 20 9 8 -3 21 4 30 17 8 13 18 20 22 16 9 -9 36 21 31 36 -2 6 2 19 9 27
13 16 25 120 13 120 -3 0 -5 14 -3 30 2 17 -1 30 -6 30 -6 0 -10 5 -10 11 0
17 -66 79 -84 79 -10 0 -13 6 -10 15 4 8 1 15 -5 15 -6 0 -11 5 -11 11 0 16
-29 41 -39 34 -5 -3 -12 3 -16 14 -3 10 -47 61 -98 112 -50 52 -91 97 -89 102
1 4 -2 7 -7 7 -5 0 -46 36 -91 80 -71 70 -78 80 -53 75 15 -3 154 -5 308 -4
429 2 415 2 415 15 0 7 8 11 17 10 9 -2 24 4 33 13 9 9 27 24 39 34 13 10 20
24 17 32 -3 8 0 15 7 18 8 2 12 29 13 74 1 65 -1 74 -27 103 -16 17 -29 36
-29 41 0 5 -11 14 -25 19 -14 5 -25 15 -25 21 0 9 -4 8 -14 0 -11 -9 -15 -9
-18 1 -3 9 -93 12 -392 12 -362 1 -386 2 -367 18 12 9 21 19 21 22 0 11 38 44
44 39 3 -3 9 3 13 13 9 25 64 70 80 66 7 -2 12 2 11 9 -2 6 6 13 17 15 11 1
21 7 23 13 7 22 44 61 58 61 8 0 14 5 14 10 0 6 6 10 13 10 16 0 55 40 41 41
-5 0 7 6 26 14 19 7 34 18 32 24 -1 6 7 11 18 11 11 0 20 5 20 11 0 5 4 8 8 5
5 -3 19 18 32 47 28 61 36 170 14 192 -8 7 -14 18 -14 24 0 5 -15 20 -32 32
-18 13 -36 28 -40 33 -4 6 -47 11 -95 12 -96 1 -111 -5 -171 -64 -18 -19 -39
-35 -45 -36 -30 -5 -57 -28 -57 -50 0 -17 -5 -22 -22 -21 -32 3 -48 -5 -48
-21 0 -8 -5 -14 -11 -14 -5 0 -23 -15 -40 -32 -16 -18 -33 -33 -37 -33 -8 0
-42 -28 -79 -62 -13 -13 -27 -23 -30 -23 -3 0 -12 -8 -19 -17 -7 -10 -14 -13
-14 -8 -1 6 -2 174 -3 374 l-2 363 -45 49 c-29 32 -50 47 -61 44 -9 -3 -22 1
-29 10 -17 20 -98 21 -106 0 -4 -8 -17 -15 -30 -15 -13 0 -24 -4 -24 -10 0 -5
-9 -10 -19 -10 -18 0 -51 -48 -51 -73 0 -6 -8 -19 -17 -29 -15 -17 -17 -55
-17 -368 0 -274 -3 -351 -13 -354 -7 -3 -13 1 -13 9 0 8 -4 15 -10 15 -5 0
-10 6 -10 14 0 8 -14 20 -30 28 -17 7 -28 18 -25 25 2 7 -2 13 -11 13 -8 0
-20 11 -26 25 -6 15 -20 25 -31 25 -11 0 -18 2 -15 5 3 3 -22 34 -56 68 -33
34 -60 65 -58 70 1 4 -2 6 -6 5 -11 -4 -182 169 -175 176 3 2 -4 9 -15 15 -11
6 -22 7 -26 4 -3 -3 -6 1 -6 10 0 13 -9 17 -35 17 -19 0 -35 4 -35 9 0 6 -13
6 -32 0 -18 -5 -48 -10 -66 -11 -19 -1 -36 -7 -39 -15 -3 -7 -9 -11 -13 -8
-13 8 -40 -24 -40 -47 0 -11 -7 -26 -16 -32 -22 -16 -26 -94 -7 -125 13 -20
13 -25 2 -32 -12 -8 -11 -12 3 -23 10 -7 15 -16 11 -20 -4 -4 0 -4 9 -1 9 4
19 2 23 -4 3 -6 1 -11 -5 -11 -6 0 -8 -5 -5 -10 4 -6 10 -8 14 -6 4 3 15 -8
25 -23 10 -15 28 -32 40 -37 12 -5 22 -18 24 -30 2 -12 14 -27 28 -34 13 -7
24 -17 24 -22 0 -4 7 -8 15 -8 8 0 15 -4 15 -9 0 -5 37 -46 82 -90 46 -45 86
-84 90 -88 4 -5 37 -39 73 -77 40 -42 62 -73 57 -78 -7 -7 -492 -19 -729 -18
-13 0 -23 -5 -23 -11 0 -6 -8 -9 -18 -7 -10 1 -31 -10 -47 -25 -17 -15 -25
-27 -20 -27 6 0 4 -4 -3 -8 -7 -5 -14 -23 -15 -40 -1 -18 -5 -32 -9 -32 -11 0
-10 -74 1 -86 5 -5 11 -20 13 -34 2 -14 9 -24 17 -22 7 1 11 -5 9 -15 -4 -20
35 -63 58 -63 7 0 14 -3 14 -8 0 -9 25 -10 464 -12 191 0 350 1 353 3 2 3 13
3 24 0 15 -4 17 -8 8 -19 -9 -11 -7 -14 7 -14 15 0 14 -3 -6 -13 -14 -7 -26
-22 -28 -33 -2 -12 -16 -34 -32 -49 -16 -15 -26 -33 -24 -40 3 -6 -2 -18 -11
-25 -8 -7 -15 -19 -15 -26 0 -8 -4 -14 -9 -14 -13 0 -21 -40 -8 -40 7 0 4 -7
-5 -14 -10 -7 -18 -18 -18 -24 0 -5 -7 -12 -15 -16 -8 -3 -15 -9 -14 -13 4
-25 -3 -43 -17 -43 -10 0 -14 -6 -11 -15 4 -8 2 -17 -3 -20 -6 -4 -10 -13 -10
-21 0 -8 4 -12 10 -9 6 3 7 -1 4 -9 -3 -9 -12 -16 -20 -16 -8 0 -19 -19 -26
-45 -7 -25 -18 -45 -25 -45 -7 0 -10 -7 -7 -15 3 -8 -1 -22 -11 -31 -11 -12
-14 -25 -10 -46 6 -25 4 -29 -11 -26 -16 2 -18 -3 -16 -28 2 -20 -2 -33 -11
-37 -8 -3 -14 -18 -14 -32 0 -15 -5 -30 -10 -34 -14 -9 -24 -41 -13 -41 15 0
12 -17 -7 -36 -10 -10 -19 -30 -19 -46 -3 -54 -4 -59 -14 -53 -6 3 -10 -4 -10
-18 0 -13 -3 -27 -7 -31 -8 -8 -14 -31 -18 -72 -1 -17 -8 -42 -15 -55 -7 -13
-12 -44 -11 -70 1 -32 -3 -48 -12 -52 -11 -4 -13 -19 -9 -56 3 -38 0 -54 -12
-66 -9 -9 -14 -20 -11 -25 3 -5 1 -11 -5 -15 -5 -3 -10 -13 -10 -21 0 -8 3
-13 8 -11 4 3 6 -18 5 -46 -2 -28 -8 -54 -14 -58 -20 -12 -21 -72 -2 -86 13
-10 14 -13 2 -13 -11 0 -14 -21 -16 -104 0 -58 -6 -120 -12 -139 -15 -44 -12
-176 4 -202 9 -14 12 -64 10 -170 -3 -118 0 -155 12 -179 15 -29 24 -96 12
-96 -9 0 -7 -34 4 -47 5 -7 6 -13 2 -13 -5 0 0 -8 9 -19 13 -14 16 -30 12 -69
-4 -37 -1 -55 9 -66 9 -8 15 -33 15 -59 0 -26 6 -49 14 -56 10 -8 13 -23 9
-44 -3 -19 2 -44 11 -62 9 -16 16 -38 16 -48 0 -10 7 -29 16 -42 9 -14 13 -25
10 -25 -4 0 0 -13 9 -30 8 -16 15 -40 15 -54 0 -14 5 -28 10 -31 6 -3 10 -22
10 -41 0 -24 5 -34 15 -34 9 0 16 -10 16 -25 2 -41 4 -45 14 -53 6 -4 12 -16
13 -27 2 -11 7 -22 11 -25 5 -3 7 -15 6 -28 -1 -12 6 -32 16 -43 10 -11 15
-27 12 -35 -3 -7 2 -17 11 -20 9 -3 14 -10 11 -14 -2 -4 4 -15 15 -25 10 -9
16 -22 14 -29 -3 -7 2 -18 10 -25 8 -7 12 -19 10 -26 -3 -7 4 -23 15 -34 12
-12 18 -21 13 -21 -4 0 1 -5 11 -11 9 -5 17 -18 17 -27 0 -9 7 -25 15 -35 7
-11 11 -26 8 -34 -4 -9 2 -16 16 -20 11 -3 18 -10 15 -15 -4 -6 -1 -14 5 -18
7 -4 13 -17 14 -29 1 -13 9 -27 18 -32 9 -4 20 -21 24 -36 3 -16 17 -42 31
-60 13 -17 24 -36 24 -42 0 -5 8 -14 17 -20 10 -5 17 -12 16 -15 -6 -12 -3
-29 3 -23 7 7 44 -36 44 -51 0 -6 18 -29 39 -52 22 -24 37 -49 34 -56 -3 -8 1
-14 11 -14 9 0 16 -8 16 -21 0 -11 4 -18 8 -15 5 3 15 -6 22 -19 7 -14 21 -27
31 -30 10 -3 16 -12 13 -19 -3 -7 7 -21 21 -32 14 -10 25 -24 25 -30 0 -6 17
-24 37 -40 21 -15 40 -32 41 -36 2 -4 10 -8 18 -8 9 0 13 -4 9 -10 -3 -5 2
-18 12 -29 10 -11 36 -40 58 -65 21 -25 45 -46 52 -46 8 0 17 -8 20 -17 8 -21
40 -53 46 -46 3 3 12 -4 19 -16 7 -12 19 -21 26 -21 8 0 12 -6 9 -14 -4 -10 6
-22 26 -35 18 -11 39 -28 48 -38 9 -10 27 -25 40 -33 13 -8 46 -36 73 -62 27
-27 57 -48 66 -48 9 0 34 -19 55 -42 22 -23 41 -36 43 -30 2 7 15 0 30 -15 15
-15 26 -32 24 -38 -2 -5 -1 -7 3 -3 8 8 85 -30 85 -42 0 -5 11 -7 24 -6 15 2
23 -1 20 -9 -6 -15 75 -70 99 -66 9 1 17 -3 17 -8 0 -6 6 -11 14 -11 7 0 19
-7 26 -15 7 -9 15 -13 18 -10 3 3 11 -4 19 -15 8 -11 23 -20 34 -20 10 0 19
-4 19 -8 0 -9 70 -37 83 -34 4 1 15 -4 23 -12 8 -9 21 -13 29 -10 9 4 15 0 15
-10 0 -14 4 -17 25 -16 3 0 14 -8 26 -18 12 -12 29 -17 44 -14 16 3 25 0 25
-8 0 -7 7 -10 15 -6 8 3 15 2 15 -3 0 -14 94 -55 123 -54 18 0 27 -4 24 -11
-3 -8 8 -13 32 -15 20 -1 40 -6 45 -11 6 -6 22 -10 37 -10 15 0 32 -7 40 -16
7 -8 21 -13 31 -11 10 3 26 -2 35 -11 10 -10 34 -17 60 -17 25 -1 48 -7 53
-14 5 -9 17 -11 33 -7 17 4 31 1 42 -10 9 -10 35 -17 60 -18 24 -1 50 -8 59
-15 9 -7 23 -10 32 -7 18 7 94 -11 94 -22 0 -4 28 -7 63 -7 34 1 71 -3 82 -9
25 -13 125 -16 148 -4 10 5 17 5 17 -1 0 -5 18 -8 40 -7 22 1 40 -1 40 -6 0
-4 129 -6 288 -4 349 5 412 8 412 19 0 4 5 5 11 2 19 -13 71 -11 76 1 3 9 28
12 79 12 52 -1 79 3 91 13 11 10 36 15 65 14 29 -2 49 2 52 10 3 8 18 11 41 8
23 -2 46 2 60 11 13 9 39 17 58 19 18 2 40 8 47 12 7 4 27 10 43 12 17 1 34 8
37 13 4 6 22 9 40 8 20 -1 35 3 38 10 2 6 8 12 14 12 5 0 24 6 41 14 30 13
116 41 127 41 3 0 27 11 54 24 26 13 62 26 80 28 17 2 33 8 34 13 2 6 9 10 16
10 6 0 29 9 51 20 22 11 31 20 22 20 -10 0 -16 4 -12 9 3 6 14 8 25 6 11 -2
45 10 77 27 32 17 72 34 88 38 17 4 29 12 28 18 -2 7 17 17 42 23 24 6 56 22
70 35 14 13 30 24 36 24 5 0 18 9 29 20 12 12 25 18 30 15 9 -6 14 8 11 28 0
4 3 7 9 7 5 0 10 -4 10 -10 0 -5 5 -10 10 -10 6 0 9 5 8 12 -2 6 8 14 22 18
14 4 24 11 23 17 -1 6 9 15 22 22 14 6 37 17 52 24 14 6 28 20 31 30 2 9 15
20 28 23 14 4 31 16 39 28 9 11 18 20 20 19 13 -6 33 10 28 23 -4 10 3 14 21
14 16 0 26 6 26 14 0 8 8 13 18 12 9 0 16 5 14 12 -1 6 5 12 14 12 8 0 12 5 9
10 -3 6 1 10 10 10 8 0 19 8 22 18 8 21 35 42 45 35 5 -2 11 3 14 11 3 9 12
16 20 16 8 0 14 7 14 15 0 8 6 15 13 15 7 0 19 9 27 20 8 11 19 20 25 20 6 0
19 14 28 30 10 17 23 30 28 30 6 0 8 4 5 9 -3 5 10 16 29 25 23 11 32 21 28
31 -4 11 -1 13 11 9 9 -4 16 -1 16 6 0 6 15 27 33 45 44 46 55 60 69 90 6 14
19 25 30 25 12 0 18 7 18 21 0 12 8 23 20 26 11 3 20 11 20 18 0 7 6 15 12 17
7 3 13 13 13 24 0 10 6 19 12 19 7 0 20 11 30 25 9 14 23 29 30 33 11 7 11 12
2 23 -6 8 -7 14 -2 14 14 0 53 35 53 47 0 6 7 16 15 23 8 7 15 22 15 33 0 11
3 17 7 14 3 -4 13 3 22 16 15 21 17 26 20 48 0 5 6 7 11 4 6 -3 10 1 10 9 0 9
4 16 9 16 5 0 12 11 15 25 4 14 10 23 15 20 5 -2 12 11 15 30 4 19 11 35 15
35 11 0 56 72 52 84 -1 5 8 19 20 32 12 13 19 24 15 24 -5 0 -1 11 8 25 9 14
14 25 10 25 -4 0 0 7 7 16 7 9 14 23 16 32 1 9 9 22 17 28 9 6 13 14 10 17 -3
3 4 15 16 27 12 12 19 28 16 36 -3 8 -1 14 4 14 4 0 11 13 15 30 4 17 11 30
17 30 6 0 8 13 6 30 -3 18 0 31 8 34 8 3 16 17 20 31 3 14 10 25 14 25 12 0
18 50 7 57 -6 4 -1 10 10 14 16 6 21 15 18 34 -1 16 3 29 11 32 8 3 14 19 14
38 0 18 6 38 14 44 14 12 26 52 30 109 2 19 9 38 16 42 7 4 14 25 15 46 1 22
10 56 19 77 9 22 15 44 13 50 -2 7 0 23 5 36 6 17 5 27 -4 33 -10 6 -9 8 4 8
13 0 16 9 14 45 -1 26 3 46 10 49 14 6 25 46 12 46 -5 0 -7 12 -3 29 3 16 7
44 7 61 1 18 7 34 14 37 8 3 11 9 8 15 -10 15 -3 228 7 228 8 0 9 512 0 525
-5 9 -9 48 -11 110 -1 11 1 39 3 63 3 31 -1 49 -14 65 -10 14 -14 28 -10 36 5
7 5 29 0 48 -4 20 -3 46 2 59 6 19 5 24 -6 24 -14 0 -21 41 -15 93 1 11 -6 21
-17 23 -14 4 -18 15 -17 52 0 26 -3 55 -8 64 -5 10 -10 37 -12 60 -2 23 -9 44
-15 46 -6 2 -11 12 -11 22 0 10 -5 22 -11 26 -8 4 -7 9 2 14 10 7 10 11 0 24
-7 8 -14 27 -16 42 -1 15 -9 31 -18 35 -9 6 -13 17 -10 29 3 12 -2 28 -10 38
-10 11 -15 28 -11 46 4 22 0 29 -15 33 -16 4 -19 9 -11 23 7 13 7 21 0 25 -6
4 -8 11 -5 16 4 5 1 9 -4 9 -6 0 -11 9 -11 20 0 11 -6 19 -12 17 -8 -1 -14 12
-16 33 -2 19 -8 39 -13 44 -5 6 -9 18 -9 28 0 10 -5 18 -11 18 -5 0 -8 4 -4 9
3 5 1 12 -5 16 -5 3 -10 15 -10 26 0 11 -7 19 -16 19 -10 0 -14 6 -11 14 3 8
-3 22 -13 31 -11 10 -18 20 -17 24 0 3 -4 16 -11 29 -7 12 -10 22 -7 22 3 0
-1 10 -10 23 -8 13 -12 26 -9 29 3 4 -4 11 -15 17 -11 6 -18 17 -15 25 3 7 -1
20 -8 28 -20 21 -37 49 -56 90 -9 21 -23 38 -30 38 -7 0 -11 4 -8 8 8 13 -25
72 -40 72 -8 0 -14 7 -14 15 0 9 -11 28 -25 43 -14 15 -25 35 -25 44 0 10 -4
18 -10 18 -5 0 -10 7 -10 15 0 8 -9 19 -19 25 -11 5 -30 27 -42 47 -13 21 -34
46 -47 57 -13 10 -21 24 -18 32 3 7 -1 17 -8 21 -7 5 -21 20 -31 36 -9 15 -21
27 -26 27 -11 0 -59 49 -59 60 0 6 -4 10 -9 10 -5 0 -14 14 -20 30 -5 17 -17
30 -25 30 -9 0 -16 9 -16 21 0 11 -4 18 -9 15 -5 -3 -12 1 -15 10 -3 8 -11 12
-16 9 -6 -4 -9 -1 -8 6 2 7 -7 18 -19 24 -13 7 -20 15 -16 18 3 4 1 7 -5 7 -7
0 -12 7 -12 16 0 8 -4 13 -9 9 -5 -3 -12 -1 -16 4 -3 6 -13 8 -23 5 -14 -5
-15 -4 -2 5 13 9 8 17 -30 51 -25 22 -56 47 -70 54 -14 8 -43 34 -66 58 -54
57 -90 87 -80 68 4 -8 0 -6 -9 5 -9 11 -20 20 -25 20 -4 0 -18 12 -29 27 -12
15 -32 30 -44 34 -12 3 -29 13 -37 20 -8 7 -30 27 -48 44 -18 16 -38 30 -45
30 -18 1 -47 25 -47 40 0 7 -6 10 -14 7 -8 -3 -21 2 -30 12 -9 10 -36 26 -59
36 -62 25 -72 32 -69 45 1 6 -1 9 -6 6 -5 -3 -16 3 -24 14 -11 12 -25 17 -40
13 -18 -4 -20 -3 -8 6 12 9 10 11 -12 11 -17 0 -31 8 -38 21 -7 11 -14 18 -17
15 -4 -3 -12 -1 -19 4 -6 6 -22 13 -35 15 -12 3 -26 10 -31 17 -4 7 -8 9 -8 4
0 -5 -9 -1 -21 10 -12 10 -30 18 -40 16 -11 -2 -22 4 -25 12 -3 9 -14 16 -23
16 -9 0 -24 7 -34 15 -11 7 -25 11 -33 8 -9 -3 -14 0 -12 8 2 9 -6 14 -24 14
-14 1 -33 7 -41 14 -9 6 -25 13 -36 14 -12 1 -21 8 -21 15 0 10 -10 13 -34 10
-19 -2 -33 -1 -30 3 6 11 -24 31 -35 24 -10 -6 -54 10 -111 40 -14 7 -40 12
-57 10 -23 -2 -33 2 -33 11 0 8 -4 14 -10 14 -5 0 -10 -6 -10 -12 0 -10 -2
-10 -9 0 -4 7 -12 12 -17 11 -21 -4 -34 2 -31 13 1 8 -15 12 -50 11 -41 0 -50
2 -46 14 5 12 -3 14 -44 10 -41 -4 -54 -1 -67 15 -13 14 -26 18 -54 15 -20 -2
-48 2 -62 8 -14 7 -53 13 -87 13 -40 0 -72 5 -86 15 -15 9 -29 12 -37 7 -8 -5
-18 -6 -23 -3 -26 16 -515 27 -533 12 -10 -8 -14 -8 -14 -1 0 7 -37 11 -105
11 -58 0 -105 -3 -105 -7z m-2753 -2298 c-3 -3 -12 -4 -19 -1 -8 3 -5 6 6 6
11 1 17 -2 13 -5z m5826 -3499 c-3 -9 -8 -14 -10 -11 -3 3 -2 9 2 15 9 16 15
13 8 -4z"/>
<path d="M4120 4692 c-14 -2 -37 -15 -52 -29 -14 -14 -30 -25 -35 -25 -4 0 -7
-3 -6 -8 3 -9 -72 -80 -84 -80 -12 0 -42 -37 -36 -44 3 -3 -2 -8 -11 -12 -9
-3 -16 -12 -16 -20 0 -7 -6 -11 -13 -8 -7 2 -20 -9 -30 -25 -10 -17 -32 -40
-50 -53 -41 -29 -73 -58 -63 -58 10 0 -44 -52 -69 -66 -11 -6 -20 -17 -20 -25
0 -8 -13 -24 -30 -37 -16 -12 -43 -38 -60 -56 -16 -18 -40 -38 -53 -45 -12 -7
-20 -17 -16 -23 4 -6 3 -8 -3 -5 -6 4 -18 -4 -27 -18 -9 -14 -13 -25 -9 -25 4
0 -2 -6 -13 -14 -16 -12 -19 -24 -17 -70 l2 -55 108 -108 c59 -59 114 -120
122 -135 8 -15 18 -25 22 -22 10 6 46 -17 47 -29 1 -17 79 -93 91 -89 6 2 11
0 10 -5 -4 -21 4 -32 41 -58 22 -15 38 -31 35 -35 -3 -4 7 -16 21 -26 24 -17
49 -42 111 -109 54 -59 70 -67 137 -70 61 -4 66 -2 66 16 0 11 4 18 9 15 4 -3
27 13 49 37 48 50 54 55 114 114 26 25 45 50 41 56 -3 5 -2 7 4 4 5 -3 16 3
23 14 8 10 20 19 26 19 13 0 29 29 25 45 -2 5 0 7 4 3 9 -9 45 23 39 34 -3 5
0 7 8 6 7 -2 12 3 10 10 -1 8 1 11 6 8 10 -6 62 40 62 54 0 6 7 10 17 10 9 0
14 3 11 6 -4 3 12 22 35 42 67 60 77 71 77 87 0 8 11 17 25 21 14 3 25 10 25
14 0 4 12 20 26 35 35 38 43 63 35 116 -6 34 -17 55 -44 83 -20 20 -38 36 -41
36 -8 0 -66 58 -66 67 0 12 -51 58 -64 58 -6 0 -11 5 -12 10 -2 22 -17 45 -29
45 -7 0 -16 7 -19 16 -3 8 -10 13 -14 10 -4 -2 -19 13 -32 35 -14 21 -28 39
-33 39 -10 0 -187 181 -187 192 0 4 -5 8 -11 8 -6 0 -31 22 -57 50 -25 27 -49
47 -54 44 -4 -3 -8 2 -8 10 0 9 -3 16 -7 17 -31 3 -72 4 -93 1z m-15 -485 l2
-144 -31 6 c-17 4 -81 6 -142 6 -132 -1 -132 0 -42 84 35 33 57 60 53 69 -3 8
0 12 7 10 12 -4 28 5 51 30 55 60 90 93 94 88 4 -3 7 -70 8 -149z m361 -391
c11 -4 -2 -22 -51 -70 -36 -36 -65 -69 -65 -75 0 -6 -5 -11 -10 -11 -6 0 -40
-29 -76 -65 -36 -36 -71 -65 -78 -65 -9 0 -11 34 -10 133 1 72 3 137 3 144 1
6 18 13 39 15 57 5 231 1 248 -6z"/>
</g>
</svg>
